{
  "asset": {
    "generator": "glTF-Transform v4.2.1",
    "version": "2.0"
  },
  "accessors": [
    {
      "type": "SCALAR",
      "componentType": 5123,
      "count": 132,
      "bufferView": 0,
      "byteOffset": 0
    },
    {
      "name": "POSITION",
      "type": "VEC3",
      "componentType": 5126,
      "count": 132,
      "max": [
        5,
        0,
        5
      ],
      "min": [
        -5,
        -5.8974409103393555,
        -5
      ],
      "bufferView": 1,
      "byteOffset": 0
    },
    {
      "name": "NORMAL",
      "type": "VEC3",
      "componentType": 5126,
      "count": 132,
      "bufferView": 1,
      "byteOffset": 12
    },
    {
      "name": "TEXCOORD_0",
      "type": "VEC2",
      "componentType": 5126,
      "count": 132,
      "bufferView": 1,
      "byteOffset": 24
    }
  ],
  "bufferViews": [
    {
      "buffer": 0,
      "byteOffset": 0,
      "byteLength": 264,
      "target": 34963
    },
    {
      "buffer": 0,
      "byteOffset": 264,
      "byteLength": 4224,
      "byteStride": 32,
      "target": 34962
    }
  ],
  "buffers": [
    {
      "uri": "platform.bin",
      "byteLength": 4488
    }
  ],
  "materials": [
    {
      "name": "lambert1",
      "pbrMetallicRoughness": {
        "baseColorFactor": [
          0.5,
          0.5,
          0.5,
          1
        ],
        "roughnessFactor": 0,
        "metallicFactor": 0
      }
    }
  ],
  "meshes": [
    {
      "primitives": [
        {
          "attributes": {
            "POSITION": 1,
            "NORMAL": 2,
            "TEXCOORD_0": 3
          },
          "mode": 4,
          "material": 0,
          "indices": 0
        }
      ]
    }
  ],
  "nodes": [
    {
      "name": "pCube1",
      "mesh": 0
    }
  ],
  "scenes": [
    {
      "nodes": [
        0
      ]
    }
  ],
  "scene": 0
}